{
  "accessors": [
    {
      "bufferView": 2,
      "componentType": 5126,
      "count": 24,
      "max": [0.21500007808208466, 1.600000023841858, 0.03999999910593033],
      "min": [-0.21500007808208466, -1.600000023841858, -0.03999999910593033],
      "type": "VEC3"
    },
    {
      "bufferView": 2,
      "byteOffset": 288,
      "componentType": 5126,
      "count": 24,
      "max": [1.0, 1.0, 1.0],
      "min": [-1.0, -1.0, -1.0],
      "type": "VEC3"
    },
    {
      "bufferView": 1,
      "componentType": 5126,
      "count": 24,
      "max": [1.268782138824463, 1.0182255506515503],
      "min": [-0.2806251049041748, 0.0],
      "type": "VEC2"
    },
    {
      "bufferView": 0,
      "componentType": 5125,
      "count": 36,
      "type": "SCALAR"
    },
    {
      "bufferView": 2,
      "byteOffset": 576,
      "componentType": 5126,
      "count": 24,
      "max": [0.5300000309944153, 0.06000002473592758, 0.020000001415610313],
      "min": [-0.5300000309944153, -0.06000002473592758, -0.020000001415610313],
      "type": "VEC3"
    },
    {
      "bufferView": 2,
      "byteOffset": 864,
      "componentType": 5126,
      "count": 24,
      "max": [1.0, 1.0, 1.0],
      "min": [-1.0, -1.0, -1.0],
      "type": "VEC3"
    },
    {
      "bufferView": 1,
      "byteOffset": 192,
      "componentType": 5126,
      "count": 24,
      "max": [0.902581512928009, 1.103872299194336],
      "min": [-0.30516302585601807, -0.10387229919433594],
      "type": "VEC2"
    },
    {
      "bufferView": 0,
      "byteOffset": 144,
      "componentType": 5125,
      "count": 36,
      "type": "SCALAR"
    },
    {
      "bufferView": 2,
      "byteOffset": 1152,
      "componentType": 5126,
      "count": 24,
      "max": [0.5300000309944153, 0.06000002473592758, 0.020000001415610313],
      "min": [-0.5300000309944153, -0.06000002473592758, -0.020000001415610313],
      "type": "VEC3"
    },
    {
      "bufferView": 2,
      "byteOffset": 1440,
      "componentType": 5126,
      "count": 24,
      "max": [1.0, 1.0, 1.0],
      "min": [-1.0, -1.0, -1.0],
      "type": "VEC3"
    },
    {
      "bufferView": 1,
      "byteOffset": 384,
      "componentType": 5126,
      "count": 24,
      "max": [0.875, 1.0],
      "min": [0.14631381630897522, 0.0],
      "type": "VEC2"
    },
    {
      "bufferView": 0,
      "byteOffset": 288,
      "componentType": 5125,
      "count": 36,
      "type": "SCALAR"
    },
    {
      "bufferView": 2,
      "byteOffset": 1728,
      "componentType": 5126,
      "count": 24,
      "max": [0.030000001192092896, 1.03000009059906, 0.125],
      "min": [-0.030000001192092896, -1.03000009059906, -0.125],
      "type": "VEC3"
    },
    {
      "bufferView": 2,
      "byteOffset": 2016,
      "componentType": 5126,
      "count": 24,
      "max": [1.0, 1.0, 1.0],
      "min": [-1.0, -1.0, -1.0],
      "type": "VEC3"
    },
    {
      "bufferView": 1,
      "byteOffset": 576,
      "componentType": 5126,
      "count": 24,
      "max": [1.3029505014419556, 1.1082744598388672],
      "min": [-0.37310242652893066, 0.1712549328804016],
      "type": "VEC2"
    },
    {
      "bufferView": 0,
      "byteOffset": 432,
      "componentType": 5125,
      "count": 36,
      "type": "SCALAR"
    },
    {
      "bufferView": 2,
      "byteOffset": 2304,
      "componentType": 5126,
      "count": 24,
      "max": [0.5300000309944153, 0.06000002473592758, 0.020000001415610313],
      "min": [-0.5300000309944153, -0.06000002473592758, -0.020000001415610313],
      "type": "VEC3"
    },
    {
      "bufferView": 2,
      "byteOffset": 2592,
      "componentType": 5126,
      "count": 24,
      "max": [1.0, 1.0, 1.0],
      "min": [-1.0, -1.0, -1.0],
      "type": "VEC3"
    },
    {
      "bufferView": 1,
      "byteOffset": 768,
      "componentType": 5126,
      "count": 24,
      "max": [0.981602132320404, 0.8877366781234741],
      "min": [-0.4632042646408081, 0.1213950514793396],
      "type": "VEC2"
    },
    {
      "bufferView": 0,
      "byteOffset": 576,
      "componentType": 5125,
      "count": 36,
      "type": "SCALAR"
    },
    {
      "bufferView": 2,
      "byteOffset": 2880,
      "componentType": 5126,
      "count": 24,
      "max": [0.020000001415610313, 0.05000000074505806, 0.06000000238418579],
      "min": [
        -0.020000001415610313, -0.05000000074505806, -0.06000000238418579
      ],
      "type": "VEC3"
    },
    {
      "bufferView": 2,
      "byteOffset": 3168,
      "componentType": 5126,
      "count": 24,
      "max": [1.0, 1.0, 1.0],
      "min": [-1.0, -1.0, -1.0],
      "type": "VEC3"
    },
    {
      "bufferView": 1,
      "byteOffset": 960,
      "componentType": 5126,
      "count": 24,
      "max": [1.0, 0.907990038394928],
      "min": [0.0, 0.125],
      "type": "VEC2"
    },
    {
      "bufferView": 0,
      "byteOffset": 720,
      "componentType": 5125,
      "count": 36,
      "type": "SCALAR"
    },
    {
      "bufferView": 2,
      "byteOffset": 3456,
      "componentType": 5126,
      "count": 24,
      "max": [0.020000001415610313, 0.05000000074505806, 0.06000000238418579],
      "min": [
        -0.020000001415610313, -0.05000000074505806, -0.06000000238418579
      ],
      "type": "VEC3"
    },
    {
      "bufferView": 2,
      "byteOffset": 3744,
      "componentType": 5126,
      "count": 24,
      "max": [1.0, 1.0, 1.0],
      "min": [-1.0, -1.0, -1.0],
      "type": "VEC3"
    },
    {
      "bufferView": 1,
      "byteOffset": 1152,
      "componentType": 5126,
      "count": 24,
      "max": [0.875, 1.0],
      "min": [0.125, 0.0],
      "type": "VEC2"
    },
    {
      "bufferView": 0,
      "byteOffset": 864,
      "componentType": 5125,
      "count": 36,
      "type": "SCALAR"
    },
    {
      "bufferView": 2,
      "byteOffset": 4032,
      "componentType": 5126,
      "count": 216,
      "max": [0.19709600508213043, 1.600000023841858, 0.03999999910593033],
      "min": [-0.21500007808208466, -1.600000023841858, -0.03999999910593033],
      "type": "VEC3"
    },
    {
      "bufferView": 2,
      "byteOffset": 6624,
      "componentType": 5126,
      "count": 216,
      "max": [0.9848064184188843, 1.0, 1.0],
      "min": [-1.0, -1.0, -1.0],
      "type": "VEC3"
    },
    {
      "bufferView": 1,
      "byteOffset": 1344,
      "componentType": 5126,
      "count": 216,
      "max": [1.2154536247253418, 0.869977593421936],
      "min": [-0.5193998217582703, 0.01549789309501648],
      "type": "VEC2"
    },
    {
      "bufferView": 0,
      "byteOffset": 1008,
      "componentType": 5125,
      "count": 600,
      "type": "SCALAR"
    },
    {
      "bufferView": 2,
      "byteOffset": 9216,
      "componentType": 5126,
      "count": 212,
      "max": [0.21500001847743988, 1.600000023841858, 0.03999999910593033],
      "min": [-0.19709597527980804, -1.600000023841858, -0.03999999910593033],
      "type": "VEC3"
    },
    {
      "bufferView": 2,
      "byteOffset": 11760,
      "componentType": 5126,
      "count": 212,
      "max": [1.0, 1.0, 1.0],
      "min": [-0.9848064184188843, -1.0, -1.0],
      "type": "VEC3"
    },
    {
      "bufferView": 1,
      "byteOffset": 3072,
      "componentType": 5126,
      "count": 212,
      "max": [1.7936832904815674, 1.091587781906128],
      "min": [-0.9859839677810669, 0.18994131684303284],
      "type": "VEC2"
    },
    {
      "bufferView": 0,
      "byteOffset": 3408,
      "componentType": 5125,
      "count": 600,
      "type": "SCALAR"
    },
    {
      "bufferView": 2,
      "byteOffset": 14304,
      "componentType": 5126,
      "count": 444,
      "max": [0.7125000357627869, 0.03000009059906006, 0.19642865657806396],
      "min": [-0.2875000834465027, -0.030230790376663208, -0.8035714626312256],
      "type": "VEC3"
    },
    {
      "bufferView": 2,
      "byteOffset": 19632,
      "componentType": 5126,
      "count": 444,
      "max": [1.0, 1.0, 1.0],
      "min": [-1.0, -1.0, -1.0],
      "type": "VEC3"
    },
    {
      "bufferView": 1,
      "byteOffset": 4768,
      "componentType": 5126,
      "count": 444,
      "max": [1.5547583103179932, 1.0],
      "min": [-0.5379433035850525, -0.07019028067588806],
      "type": "VEC2"
    },
    {
      "bufferView": 0,
      "byteOffset": 5808,
      "componentType": 5125,
      "count": 582,
      "type": "SCALAR"
    },
    {
      "bufferView": 2,
      "byteOffset": 24960,
      "componentType": 5126,
      "count": 444,
      "max": [0.7125000357627869, 0.03000009059906006, 0.19642865657806396],
      "min": [-0.2875000834465027, -0.030230790376663208, -0.8035714626312256],
      "type": "VEC3"
    },
    {
      "bufferView": 2,
      "byteOffset": 30288,
      "componentType": 5126,
      "count": 444,
      "max": [1.0, 1.0, 1.0],
      "min": [-1.0, -1.0, -1.0],
      "type": "VEC3"
    },
    {
      "bufferView": 1,
      "byteOffset": 8320,
      "componentType": 5126,
      "count": 444,
      "max": [1.5547583103179932, 1.0],
      "min": [-0.5379433035850525, -0.07019028067588806],
      "type": "VEC2"
    },
    {
      "bufferView": 0,
      "byteOffset": 8136,
      "componentType": 5125,
      "count": 582,
      "type": "SCALAR"
    }
  ],
  "asset": {
    "extras": {
      "author": "RobErtArt (https://sketchfab.com/RobErtArt)",
      "license": "CC-BY-4.0 (http://creativecommons.org/licenses/by/4.0/)",
      "source": "https://sketchfab.com/3d-models/outside-table-ba3a53a73b3f409ea1f2898077e517cf",
      "title": "Outside Table"
    },
    "generator": "Sketchfab-12.66.0",
    "version": "2.0"
  },
  "bufferViews": [
    {
      "buffer": 0,
      "byteLength": 10464,
      "name": "floatBufferViews",
      "target": 34963
    },
    {
      "buffer": 0,
      "byteLength": 11872,
      "byteOffset": 10464,
      "byteStride": 8,
      "name": "floatBufferViews",
      "target": 34962
    },
    {
      "buffer": 0,
      "byteLength": 35616,
      "byteOffset": 22336,
      "byteStride": 12,
      "name": "floatBufferViews",
      "target": 34962
    }
  ],
  "buffers": [
    {
      "byteLength": 57952,
      "uri": "outside_table.bin"
    }
  ],
  "images": [
    {
      "uri": "outside_table/textures/oakdark_baseColor.png"
    },
    {
      "uri": "outside_table/textures/oakdark_metallicRoughness.png"
    }
  ],
  "materials": [
    {
      "doubleSided": true,
      "name": "oakdark",
      "pbrMetallicRoughness": {
        "baseColorFactor": [
          0.8930817610062893, 0.8930817610062893, 0.8930817610062893, 1.0
        ],
        "baseColorTexture": {
          "index": 0
        },
        "metallicFactor": 0.779874213836478,
        "metallicRoughnessTexture": {
          "index": 1
        },
        "roughnessFactor": 0.15723270440251572
      }
    }
  ],
  "meshes": [
    {
      "name": "Cube_oakdark_0",
      "primitives": [
        {
          "attributes": {
            "NORMAL": 1,
            "POSITION": 0,
            "TEXCOORD_0": 2
          },
          "indices": 3,
          "material": 0,
          "mode": 4
        }
      ]
    },
    {
      "name": "Cube.003_oakdark_0",
      "primitives": [
        {
          "attributes": {
            "NORMAL": 5,
            "POSITION": 4,
            "TEXCOORD_0": 6
          },
          "indices": 7,
          "material": 0,
          "mode": 4
        }
      ]
    },
    {
      "name": "Cube.004_oakdark_0",
      "primitives": [
        {
          "attributes": {
            "NORMAL": 9,
            "POSITION": 8,
            "TEXCOORD_0": 10
          },
          "indices": 11,
          "material": 0,
          "mode": 4
        }
      ]
    },
    {
      "name": "Cube.005_oakdark_0",
      "primitives": [
        {
          "attributes": {
            "NORMAL": 13,
            "POSITION": 12,
            "TEXCOORD_0": 14
          },
          "indices": 15,
          "material": 0,
          "mode": 4
        }
      ]
    },
    {
      "name": "Cube.006_oakdark_0",
      "primitives": [
        {
          "attributes": {
            "NORMAL": 17,
            "POSITION": 16,
            "TEXCOORD_0": 18
          },
          "indices": 19,
          "material": 0,
          "mode": 4
        }
      ]
    },
    {
      "name": "Cube.007_oakdark_0",
      "primitives": [
        {
          "attributes": {
            "NORMAL": 21,
            "POSITION": 20,
            "TEXCOORD_0": 22
          },
          "indices": 23,
          "material": 0,
          "mode": 4
        }
      ]
    },
    {
      "name": "Cube.008_oakdark_0",
      "primitives": [
        {
          "attributes": {
            "NORMAL": 25,
            "POSITION": 24,
            "TEXCOORD_0": 26
          },
          "indices": 27,
          "material": 0,
          "mode": 4
        }
      ]
    },
    {
      "name": "Cube.001_oakdark_0",
      "primitives": [
        {
          "attributes": {
            "NORMAL": 29,
            "POSITION": 28,
            "TEXCOORD_0": 30
          },
          "indices": 31,
          "material": 0,
          "mode": 4
        }
      ]
    },
    {
      "name": "Cube.002_oakdark_0",
      "primitives": [
        {
          "attributes": {
            "NORMAL": 33,
            "POSITION": 32,
            "TEXCOORD_0": 34
          },
          "indices": 35,
          "material": 0,
          "mode": 4
        }
      ]
    },
    {
      "name": "Plane.001_oakdark_0",
      "primitives": [
        {
          "attributes": {
            "NORMAL": 37,
            "POSITION": 36,
            "TEXCOORD_0": 38
          },
          "indices": 39,
          "material": 0,
          "mode": 4
        }
      ]
    },
    {
      "name": "Plane.002_oakdark_0",
      "primitives": [
        {
          "attributes": {
            "NORMAL": 41,
            "POSITION": 40,
            "TEXCOORD_0": 42
          },
          "indices": 43,
          "material": 0,
          "mode": 4
        }
      ]
    }
  ],
  "nodes": [
    {
      "children": [1],
      "matrix": [
        1.0, 0.0, 0.0, 0.0, 0.0, 2.220446049250313e-16, -1.0, 0.0, 0.0, 1.0,
        2.220446049250313e-16, 0.0, 0.0, 0.0, 0.0, 1.0
      ],
      "name": "Sketchfab_model"
    },
    {
      "children": [2],
      "matrix": [
        0.009999999776482582, 0.0, 0.0, 0.0, 0.0, 0.0, 0.009999999776482582,
        0.0, 0.0, -0.009999999776482582, 0.0, 0.0, 0.0, 0.0, 0.0, 1.0
      ],
      "name": "Table3p.fbx"
    },
    {
      "children": [3, 5, 7, 9, 11, 13, 15, 17, 19, 21, 23],
      "name": "RootNode"
    },
    {
      "children": [4],
      "matrix": [
        100.0, 0.0, 0.0, 0.0, 0.0, -1.629206793918314e-5, -99.99999999999868,
        0.0, 0.0, 99.99999999999868, -1.629206793918314e-5, 0.0, 0.0,
        108.00000762939453, -102.17607116699219, 1.0
      ],
      "name": "Cube"
    },
    {
      "mesh": 0,
      "name": "Cube_oakdark_0"
    },
    {
      "children": [6],
      "matrix": [
        100.0, 0.0, 0.0, 0.0, 0.0, -1.629206793918314e-5, -99.99999999999868,
        0.0, 0.0, 99.99999999999868, -1.629206793918314e-5, 0.0, 0.0,
        102.00000762939453, -3.1760904788970947, 1.0
      ],
      "name": "Cube.003"
    },
    {
      "mesh": 1,
      "name": "Cube.003_oakdark_0"
    },
    {
      "children": [8],
      "matrix": [
        100.0, 0.0, 0.0, 0.0, 0.0, -1.629206793918314e-5, -99.99999999999868,
        0.0, 0.0, 99.99999999999868, -1.629206793918314e-5, 0.0, 0.0,
        102.00000762939453, -203.17608642578125, 1.0
      ],
      "name": "Cube.004"
    },
    {
      "mesh": 2,
      "name": "Cube.004_oakdark_0"
    },
    {
      "children": [10],
      "matrix": [
        100.0, 0.0, 0.0, 0.0, 0.0, -1.629206793918314e-5, -99.99999999999868,
        0.0, 0.0, 99.99999999999868, -1.629206793918314e-5, 0.0, 0.0, 50.0,
        -103.17609405517578, 1.0
      ],
      "name": "Cube.005"
    },
    {
      "mesh": 3,
      "name": "Cube.005_oakdark_0"
    },
    {
      "children": [12],
      "matrix": [
        100.0, 0.0, 0.0, 0.0, 0.0, -1.629206793918314e-5, -99.99999999999868,
        0.0, 0.0, 99.99999999999868, -1.629206793918314e-5, 0.0, 0.0,
        102.00000762939453, -103.62284088134766, 1.0
      ],
      "name": "Cube.006"
    },
    {
      "mesh": 4,
      "name": "Cube.006_oakdark_0"
    },
    {
      "children": [14],
      "matrix": [
        100.0, 0.0, 0.0, 0.0, -0.0, -1.629206793918314e-5, -99.99999999999868,
        0.0, 0.0, 99.99999999999868, -1.629206793918314e-5, 0.0,
        -0.0020104926079511642, 49.58253479003906, 4.802706241607666, 1.0
      ],
      "name": "Cube.007"
    },
    {
      "mesh": 5,
      "name": "Cube.007_oakdark_0"
    },
    {
      "children": [16],
      "matrix": [
        100.0, 0.0, 0.0, 0.0, -0.0, -1.629206793918314e-5, -99.99999999999868,
        0.0, 0.0, 99.99999999999868, -1.629206793918314e-5, 0.0,
        -0.0020104926079511642, 49.58253479003906, -211.19334411621094, 1.0
      ],
      "name": "Cube.008"
    },
    {
      "mesh": 6,
      "name": "Cube.008_oakdark_0"
    },
    {
      "children": [18],
      "matrix": [
        100.0, 0.0, 0.0, 0.0, 0.0, -1.629206793918314e-5, -99.99999999999868,
        0.0, 0.0, 99.99999999999868, -1.629206793918314e-5, 0.0, 44.0,
        108.00000762939453, -102.17607116699219, 1.0
      ],
      "name": "Cube.001"
    },
    {
      "mesh": 7,
      "name": "Cube.001_oakdark_0"
    },
    {
      "children": [20],
      "matrix": [
        100.0, 0.0, 0.0, 0.0, -0.0, -1.629206793918314e-5, -99.99999999999868,
        0.0, 0.0, 99.99999999999868, -1.629206793918314e-5, 0.0,
        -44.14875411987305, 108.00000762939453, -102.17607116699219, 1.0
      ],
      "name": "Cube.002"
    },
    {
      "mesh": 8,
      "name": "Cube.002_oakdark_0"
    },
    {
      "children": [22],
      "matrix": [
        100.0, 0.0, 0.0, 0.0, -0.0, -1.629206793918314e-5, -99.99999999999868,
        0.0, 0.0, 99.99999999999868, -1.629206793918314e-5, 0.0,
        -20.611024856567383, 80.35761260986328, -3.1760811805725098, 1.0
      ],
      "name": "Plane.001"
    },
    {
      "mesh": 9,
      "name": "Plane.001_oakdark_0"
    },
    {
      "children": [24],
      "matrix": [
        100.0, 0.0, 0.0, 0.0, -0.0, -1.629206793918314e-5, -99.99999999999868,
        0.0, 0.0, 99.99999999999868, -1.629206793918314e-5, 0.0,
        -20.611024856567383, 80.35761260986328, -203.1760711669922, 1.0
      ],
      "name": "Plane.002"
    },
    {
      "mesh": 10,
      "name": "Plane.002_oakdark_0"
    }
  ],
  "samplers": [
    {
      "magFilter": 9729,
      "minFilter": 9987,
      "wrapS": 10497,
      "wrapT": 10497
    }
  ],
  "scene": 0,
  "scenes": [
    {
      "name": "Sketchfab_Scene",
      "nodes": [0]
    }
  ],
  "textures": [
    {
      "sampler": 0,
      "source": 0
    },
    {
      "sampler": 0,
      "source": 1
    }
  ]
}
