{
  "accessors": [
    {
      "bufferView": 2,
      "componentType": 5126,
      "count": 3814,
      "max": [149.935302734375, 1301.0465087890625, 166.51580810546875],
      "min": [-143.80250549316406, 1013.600341796875, -136.95343017578125],
      "type": "VEC3"
    },
    {
      "bufferView": 2,
      "byteOffset": 45768,
      "componentType": 5126,
      "count": 3814,
      "max": [0.9987666606903076, 0.9985761642456055, 0.9998520612716675],
      "min": [-0.9990248680114746, -0.8979315161705017, -0.9996892213821411],
      "type": "VEC3"
    },
    {
      "bufferView": 1,
      "componentType": 5126,
      "count": 3814,
      "max": [0.7085000276565552, -0.028909999877214432],
      "min": [0.2094700038433075, -0.47890999913215637],
      "type": "VEC2"
    },
    {
      "bufferView": 1,
      "byteOffset": 30512,
      "componentType": 5126,
      "count": 3814,
      "max": [0.9341064691543579, 0.9980080127716064],
      "min": [0.0018644839292392135, 0.0019920319318771362],
      "type": "VEC2"
    },
    {
      "bufferView": 1,
      "byteOffset": 61024,
      "componentType": 5126,
      "count": 3814,
      "max": [0.7085000276565552, -0.028909999877214432],
      "min": [0.2094700038433075, -0.47890999913215637],
      "type": "VEC2"
    },
    {
      "bufferView": 0,
      "componentType": 5125,
      "count": 8952,
      "type": "SCALAR"
    },
    {
      "bufferView": 2,
      "byteOffset": 91536,
      "componentType": 5126,
      "count": 2022,
      "max": [31.11189842224121, 1177.1424560546875, 26.111989974975586],
      "min": [-26.111980438232422, 0.0, -26.111989974975586],
      "type": "VEC3"
    },
    {
      "bufferView": 2,
      "byteOffset": 115800,
      "componentType": 5126,
      "count": 2022,
      "max": [0.9990267753601074, 0.732768714427948, 0.9982627034187317],
      "min": [-0.9990190267562866, -0.19420038163661957, -0.9990217685699463],
      "type": "VEC3"
    },
    {
      "bufferView": 1,
      "byteOffset": 91536,
      "componentType": 5126,
      "count": 2022,
      "max": [-0.0014600000577047467, 9.7775297164917],
      "min": [-0.9995099902153015, 0.0],
      "type": "VEC2"
    },
    {
      "bufferView": 1,
      "byteOffset": 107712,
      "componentType": 5126,
      "count": 2022,
      "max": [0.5698761343955994, 0.7919629812240601],
      "min": [0.001864519203081727, 0.0019920319318771362],
      "type": "VEC2"
    },
    {
      "bufferView": 1,
      "byteOffset": 123888,
      "componentType": 5126,
      "count": 2022,
      "max": [-0.0014600000577047467, 9.7775297164917],
      "min": [-0.9995099902153015, 0.0],
      "type": "VEC2"
    },
    {
      "bufferView": 0,
      "byteOffset": 35808,
      "componentType": 5125,
      "count": 9720,
      "type": "SCALAR"
    },
    {
      "bufferView": 2,
      "byteOffset": 140064,
      "componentType": 5126,
      "count": 7392,
      "max": [356.890380859375, 1456.71533203125, 352.5854797363281],
      "min": [-330.0462951660156, 787.765380859375, -341.5708923339844],
      "type": "VEC3"
    },
    {
      "bufferView": 2,
      "byteOffset": 228768,
      "componentType": 5126,
      "count": 7392,
      "max": [0.999755322933197, 0.9992324113845825, 0.9996204376220703],
      "min": [-0.9991034865379333, -0.9998328685760498, -0.9995961785316467],
      "type": "VEC3"
    },
    {
      "bufferView": 1,
      "byteOffset": 140064,
      "componentType": 5126,
      "count": 7392,
      "max": [1.000100016593933, -0.0],
      "min": [9.999999747378752e-5, -2.0],
      "type": "VEC2"
    },
    {
      "bufferView": 1,
      "byteOffset": 199200,
      "componentType": 5126,
      "count": 7392,
      "max": [0.9341064691543579, 0.9866515398025513],
      "min": [0.0018644839292392135, 0.0643678829073906],
      "type": "VEC2"
    },
    {
      "bufferView": 0,
      "byteOffset": 74688,
      "componentType": 5125,
      "count": 7392,
      "type": "SCALAR"
    }
  ],
  "asset": {
    "extras": {
      "author": "aliyeredon (https://sketchfab.com/aliyeredon)",
      "license": "CC-BY-4.0 (http://creativecommons.org/licenses/by/4.0/)",
      "source": "https://sketchfab.com/3d-models/realistic-palm-tree-model-vol1-24bc514ac5e04e56a97fcb9b555aa67d",
      "title": "Realistic Palm Tree Model vol.1"
    },
    "generator": "Sketchfab-13.17.0",
    "version": "2.0"
  },
  "bufferViews": [
    {
      "buffer": 0,
      "byteLength": 104256,
      "name": "floatBufferViews",
      "target": 34963
    },
    {
      "buffer": 0,
      "byteLength": 258336,
      "byteOffset": 104256,
      "byteStride": 8,
      "name": "floatBufferViews",
      "target": 34962
    },
    {
      "buffer": 0,
      "byteLength": 317472,
      "byteOffset": 362592,
      "byteStride": 12,
      "name": "floatBufferViews",
      "target": 34962
    }
  ],
  "buffers": [
    {
      "byteLength": 680064,
      "uri": "palm_tree.bin"
    }
  ],
  "images": [
    {
      "uri": "palm_tree/textures/Palm_Center_baseColor.png"
    },
    {
      "uri": "palm_tree/textures/Palm_Leaf_baseColor.png"
    }
  ],
  "materials": [
    {
      "doubleSided": true,
      "name": "Palm_Center",
      "pbrMetallicRoughness": {
        "baseColorTexture": {
          "index": 0
        },
        "metallicFactor": 0.0,
        "roughnessFactor": 0.6
      }
    },
    {
      "doubleSided": true,
      "name": "Palm_Trunk",
      "pbrMetallicRoughness": {
        "baseColorTexture": {
          "index": 0
        },
        "metallicFactor": 0.0,
        "roughnessFactor": 0.6
      }
    },
    {
      "alphaMode": "MASK",
      "doubleSided": true,
      "name": "Palm_Leaf",
      "pbrMetallicRoughness": {
        "baseColorTexture": {
          "index": 1
        },
        "metallicFactor": 0.0,
        "roughnessFactor": 0.6
      }
    }
  ],
  "meshes": [
    {
      "name": "Palm_1_1_Palm_Center_0",
      "primitives": [
        {
          "attributes": {
            "NORMAL": 1,
            "POSITION": 0,
            "TEXCOORD_0": 2,
            "TEXCOORD_1": 3,
            "TEXCOORD_2": 4
          },
          "indices": 5,
          "material": 0,
          "mode": 4
        }
      ]
    },
    {
      "name": "Palm_1_1_Palm_Trunk_0",
      "primitives": [
        {
          "attributes": {
            "NORMAL": 7,
            "POSITION": 6,
            "TEXCOORD_0": 8,
            "TEXCOORD_1": 9,
            "TEXCOORD_2": 10
          },
          "indices": 11,
          "material": 1,
          "mode": 4
        }
      ]
    },
    {
      "name": "Palm_1_1_Palm_Leaf_0",
      "primitives": [
        {
          "attributes": {
            "NORMAL": 13,
            "POSITION": 12,
            "TEXCOORD_0": 14,
            "TEXCOORD_1": 15
          },
          "indices": 16,
          "material": 2,
          "mode": 4
        }
      ]
    }
  ],
  "nodes": [
    {
      "children": [1],
      "matrix": [
        1.0, 0.0, 0.0, 0.0, 0.0, 2.220446049250313e-16, -1.0, 0.0, 0.0, 1.0,
        2.220446049250313e-16, 0.0, 0.0, 0.0, 0.0, 1.0
      ],
      "name": "Sketchfab_model"
    },
    {
      "children": [2],
      "matrix": [
        0.009999999776482582, 0.0, 0.0, 0.0, 0.0, 0.0, 0.009999999776482582,
        0.0, 0.0, -0.009999999776482582, 0.0, 0.0, 0.0, 0.0, 0.0, 1.0
      ],
      "name": "Palm_1_1.fbx"
    },
    {
      "children": [3],
      "name": "RootNode"
    },
    {
      "children": [4, 5, 6],
      "name": "Palm_1_1"
    },
    {
      "mesh": 0,
      "name": "Palm_1_1_Palm_Center_0"
    },
    {
      "mesh": 1,
      "name": "Palm_1_1_Palm_Trunk_0"
    },
    {
      "mesh": 2,
      "name": "Palm_1_1_Palm_Leaf_0"
    }
  ],
  "samplers": [
    {
      "magFilter": 9729,
      "minFilter": 9987,
      "wrapS": 10497,
      "wrapT": 10497
    }
  ],
  "scene": 0,
  "scenes": [
    {
      "name": "Sketchfab_Scene",
      "nodes": [0]
    }
  ],
  "textures": [
    {
      "sampler": 0,
      "source": 0
    },
    {
      "sampler": 0,
      "source": 1
    }
  ]
}
