{
  "accessors": [
    {
      "bufferView": 2,
      "componentType": 5126,
      "count": 55697,
      "max": [11.967950820922852, 12.44982624053955, 32.75089645385742],
      "min": [0.0, 0.0, 0.0],
      "type": "VEC3"
    },
    {
      "bufferView": 2,
      "byteOffset": 668364,
      "componentType": 5126,
      "count": 55697,
      "max": [0.9999778866767883, 0.9999857544898987, 0.9999606609344482],
      "min": [-0.9999929070472717, -0.9999715685844421, -0.9999962449073792],
      "type": "VEC3"
    },
    {
      "bufferView": 3,
      "componentType": 5126,
      "count": 55697,
      "max": [0.9999881982803345, 0.9999950528144836, 0.9999712705612183, 1.0],
      "min": [
        -0.9999867081642151, -0.9999978542327881, -0.9999801516532898, -1.0
      ],
      "type": "VEC4"
    },
    {
      "bufferView": 1,
      "componentType": 5126,
      "count": 55697,
      "max": [0.9994999766349792, 0.9946280121803284],
      "min": [0.0005000000237487257, 0.0005000000237487257],
      "type": "VEC2"
    },
    {
      "bufferView": 0,
      "componentType": 5125,
      "count": 296712,
      "type": "SCALAR"
    }
  ],
  "asset": {
    "extras": {
      "author": "Franco Pizzani (https://sketchfab.com/LittleNinja)",
      "license": "CC-BY-4.0 (http://creativecommons.org/licenses/by/4.0/)",
      "source": "https://sketchfab.com/3d-models/pineapple-scan-1c77bd376c0940cab3ec72b037a6fc46",
      "title": "Pineapple Scan"
    },
    "generator": "Sketchfab-12.68.0",
    "version": "2.0"
  },
  "bufferViews": [
    {
      "buffer": 0,
      "byteLength": 1186848,
      "name": "floatBufferViews",
      "target": 34963
    },
    {
      "buffer": 0,
      "byteLength": 445576,
      "byteOffset": 1186848,
      "byteStride": 8,
      "name": "floatBufferViews",
      "target": 34962
    },
    {
      "buffer": 0,
      "byteLength": 1336728,
      "byteOffset": 1632424,
      "byteStride": 12,
      "name": "floatBufferViews",
      "target": 34962
    },
    {
      "buffer": 0,
      "byteLength": 891152,
      "byteOffset": 2969152,
      "byteStride": 16,
      "name": "floatBufferViews",
      "target": 34962
    }
  ],
  "buffers": [
    {
      "byteLength": 3860304,
      "uri": "pineapple.bin"
    }
  ],
  "images": [
    {
      "uri": "pineapple/textures/material_0_baseColor.png"
    },
    {
      "uri": "pineapple/textures/material_0_metallicRoughness.png"
    },
    {
      "uri": "pineapple/textures/material_0_normal.png"
    }
  ],
  "materials": [
    {
      "doubleSided": true,
      "name": "material_0",
      "normalTexture": {
        "index": 2
      },
      "occlusionTexture": {
        "index": 1
      },
      "pbrMetallicRoughness": {
        "baseColorTexture": {
          "index": 0
        },
        "metallicFactor": 0.0,
        "metallicRoughnessTexture": {
          "index": 1
        }
      }
    }
  ],
  "meshes": [
    {
      "name": "Object_0",
      "primitives": [
        {
          "attributes": {
            "NORMAL": 1,
            "POSITION": 0,
            "TANGENT": 2,
            "TEXCOORD_0": 3
          },
          "indices": 4,
          "material": 0,
          "mode": 4
        }
      ]
    }
  ],
  "nodes": [
    {
      "children": [1],
      "matrix": [
        1.0, 0.0, 0.0, 0.0, 0.0, 2.220446049250313e-16, -1.0, 0.0, 0.0, 1.0,
        2.220446049250313e-16, 0.0, 0.0, 0.0, 0.0, 1.0
      ],
      "name": "Sketchfab_model"
    },
    {
      "children": [2],
      "matrix": [
        1.0, 0.0, 0.0, 0.0, 0.0, 1.0, 0.0, 0.0, 0.0, 0.0, 1.0, 0.0,
        -6.062912940979004, -6.304562091827393, -0.9631080031394958, 1.0
      ],
      "name": "pineapple.obj.cleaner.gles"
    },
    {
      "children": [3],
      "name": "Object_2"
    },
    {
      "mesh": 0,
      "name": "Object_3"
    }
  ],
  "samplers": [
    {
      "magFilter": 9729,
      "minFilter": 9987,
      "wrapS": 10497,
      "wrapT": 10497
    }
  ],
  "scene": 0,
  "scenes": [
    {
      "name": "Sketchfab_Scene",
      "nodes": [0]
    }
  ],
  "textures": [
    {
      "sampler": 0,
      "source": 0
    },
    {
      "sampler": 0,
      "source": 1
    },
    {
      "sampler": 0,
      "source": 2
    }
  ]
}
